<svg width="320" height="320" viewBox="0 0 320 320" fill="none" xmlns="http://www.w3.org/2000/svg">
  <rect width="320" height="320" rx="28" fill="#343841"/>

  <rect x="0.5" y="0.5" width="319" height="319" rx="27.5" stroke="rgba(216,217,218,0.08)"/>

  <circle cx="246" cy="74" r="56" fill="rgba(255,246,224,0.04)"/>
  <circle cx="72" cy="252" r="72" fill="rgba(255,246,224,0.03)"/>

  <path
    d="M199.5 82V185.23C191.961 178.976 180.906 176.777 169.794 180.332C153.413 185.57 143.338 199.934 147.29 212.415C151.242 224.896 167.724 230.771 184.106 225.533C198.889 220.807 208.388 208.737 207.348 197.313V123.451L260.5 111.84V161.23C252.961 154.976 241.906 152.777 230.794 156.332C214.413 161.57 204.338 175.934 208.29 188.415C212.242 200.896 228.724 206.771 245.106 201.533C259.889 196.807 269.388 184.737 268.348 173.313V77L199.5 82Z"
    fill="#FFF6E0"
  />

  <path
    d="M199.5 82V123.451L260.5 111.84V77L199.5 82Z"
    fill="rgba(255,255,255,0.18)"
  />
</svg>